<?xml version="1.0" encoding="UTF-8" standalone="no"?>
<svg width="96px" height="96px" viewBox="0 0 96 96" version="1.1" xmlns="http://www.w3.org/2000/svg" xmlns:xlink="http://www.w3.org/1999/xlink" xmlns:sketch="http://www.bohemiancoding.com/sketch/ns">
    <!-- Generator: Sketch 3.3.3 (12072) - http://www.bohemiancoding.com/sketch -->
    <title>decKode96</title>
    <desc>Created with Sketch.</desc>
    <defs></defs>
    <g id="Page-1" stroke="none" stroke-width="1" fill="none" fill-rule="evenodd" sketch:type="MSPage">
        <g id="decKode96" sketch:type="MSArtboardGroup" fill="#83D6E2">
            <g id="Group" sketch:type="MSLayerGroup" transform="translate(28.000000, 24.000000)">
                <g id="deckode-Logo" sketch:type="MSShapeGroup">
                    <g id="Group">
                        <path d="M13.550173,41 C18.5544301,41.0000017 22.7129042,38.4997642 26.1868512,35.0335821 C26.7670464,34.4216418 44.5717586,17.1252307 43.5432526,16.9813433 C42.890588,16.9002726 36.8442907,16.9813433 36.8442907,16.9813433 C36.8442907,16.9813433 24.6561,29.196931 22.8373702,31.0559701 C22.5592974,31.3116648 19.1627719,34.1156716 18.4221453,34.5746269 C17.641917,35.0335821 16.8814895,35.7985075 13.550173,35.7985075 C8.51678751,35.7985075 5.1709067,32.1268654 5.17647059,28.4552239 C5.1709067,25.5485075 6.69176161,20.5086751 13.550173,20.5 C17.7939926,20.4946022 21.3148789,23.8656716 21.3148789,23.8656716 L21.3148789,17.8992537 C21.3148789,17.8992537 17.7940025,15.2985075 13.550173,15.2985075 C5.77924866,15.2985075 8.17334177e-16,20.6529851 0,28.4552239 C8.17334197e-16,36.4104478 6.69176161,40.9999977 13.550173,41 Z" id="Oval-1"></path>
                        <path d="M23.1418685,28.608209 L23.1418685,5.04850746 L28.3183391,0.152985075 L28.3183391,23.5597015 L23.1418685,28.608209 Z" id="Rectangle-1"></path>
                        <path d="M29.5363322,33.8097015 L33.1903114,30.1380597 L44,41 L36.6920415,41 L29.5363322,33.8097015 L29.5363322,33.8097015 Z" id="Rectangle-1-Copy-2"></path>
                    </g>
                </g>
            </g>
        </g>
    </g>
</svg>