<?xml version="1.0" encoding="UTF-8" standalone="no"?>
<svg width="83px" height="80px" viewBox="0 0 83 80" version="1.1" xmlns="http://www.w3.org/2000/svg" xmlns:xlink="http://www.w3.org/1999/xlink" xmlns:sketch="http://www.bohemiancoding.com/sketch/ns">
    <!-- Generator: Sketch 3.3.3 (12072) - http://www.bohemiancoding.com/sketch -->
    <title>refining</title>
    <desc>Created with Sketch.</desc>
    <defs></defs>
    <g id="Page-1" stroke="none" stroke-width="1" fill="none" fill-rule="evenodd" sketch:type="MSPage">
        <g id="refining" sketch:type="MSArtboardGroup">
            <circle id="Oval-8" fill="#83D6E2" sketch:type="MSShapeGroup" cx="12" cy="37" r="6"></circle>
            <circle id="Oval-8-Copy" stroke="#83D6E2" sketch:type="MSShapeGroup" cx="56" cy="15" r="6"></circle>
            <circle id="Oval-8-Copy-2" stroke="#83D6E2" sketch:type="MSShapeGroup" cx="56" cy="59" r="6"></circle>
            <g id="Arrow" sketch:type="MSLayerGroup" transform="translate(20.000000, 35.000000)" stroke="#83D6E2">
                <path d="M0.5,2.5 L14.5,2.5" id="Line" stroke-linecap="square" sketch:type="MSShapeGroup"></path>
                <polygon id="Triangle-1" fill="#83D6E2" sketch:type="MSShapeGroup" transform="translate(15.500000, 2.500000) rotate(90.000000) translate(-15.500000, -2.500000) " points="15.5 1 17 4 14 4 "></polygon>
            </g>
            <g id="Arrow-Copy-2" sketch:type="MSLayerGroup" transform="translate(42.292242, 29.286697) rotate(-38.000000) translate(-42.292242, -29.286697) translate(33.292242, 27.286697)" stroke="#83D6E2">
                <path d="M1.5,1.5 L15.5,1.5" id="Line" stroke-linecap="square" sketch:type="MSShapeGroup"></path>
                <polygon id="Triangle-1" fill="#83D6E2" sketch:type="MSShapeGroup" transform="translate(16.500000, 1.500000) rotate(90.000000) translate(-16.500000, -1.500000) " points="16.5 2.7000624e-13 18 3 15 3 "></polygon>
            </g>
            <g id="Arrow-Copy-3" sketch:type="MSLayerGroup" transform="translate(41.848930, 47.286697) rotate(38.000000) translate(-41.848930, -47.286697) translate(32.848930, 45.286697)" stroke="#83D6E2">
                <path d="M0.5,1.5 L14.5,1.5" id="Line" stroke-linecap="square" sketch:type="MSShapeGroup"></path>
                <polygon id="Triangle-1" fill="#83D6E2" sketch:type="MSShapeGroup" transform="translate(15.500000, 1.500000) rotate(90.000000) translate(-15.500000, -1.500000) " points="15.5 2.27373675e-13 17 3 14 3 "></polygon>
            </g>
            <g id="Arrow-Copy" sketch:type="MSLayerGroup" transform="translate(44.000000, 35.000000)" stroke="#83D6E2">
                <path d="M0.5,2.5 L14.5,2.5" id="Line" stroke-linecap="square" sketch:type="MSShapeGroup"></path>
                <polygon id="Triangle-1" fill="#83D6E2" sketch:type="MSShapeGroup" transform="translate(15.500000, 2.500000) rotate(90.000000) translate(-15.500000, -2.500000) " points="15.5 1 17 4 14 4 "></polygon>
            </g>
            <g id="Cross" sketch:type="MSLayerGroup" transform="translate(66.000000, 32.000000)" stroke="#83D6E2" stroke-linecap="square">
                <path d="M0.5,0.5 C1,5 10,11 10,11" id="Line-Copy" sketch:type="MSShapeGroup"></path>
                <path d="M0.5,0 C3,2.5 10,10.5 10,10.5" id="Line-Copy-2" sketch:type="MSShapeGroup" transform="translate(5.250000, 5.250000) scale(1, -1) translate(-5.250000, -5.250000) "></path>
            </g>
        </g>
    </g>
</svg>