<?xml version="1.0" encoding="UTF-8" standalone="no"?>
<svg width="64px" height="14px" viewBox="0 0 64 14" version="1.1" xmlns="http://www.w3.org/2000/svg" xmlns:xlink="http://www.w3.org/1999/xlink" xmlns:sketch="http://www.bohemiancoding.com/sketch/ns">
    <!-- Generator: Sketch 3.3.3 (12072) - http://www.bohemiancoding.com/sketch -->
    <title>wave-line</title>
    <desc>Created with Sketch.</desc>
    <defs></defs>
    <g id="Page-1" stroke="none" stroke-width="1" fill="none" fill-rule="evenodd" sketch:type="MSPage">
        <g id="wave-line" sketch:type="MSArtboardGroup">
            <g sketch:type="MSLayerGroup" transform="translate(3.000000, 0.000000)">
                <path d="M3.17951745e-08,8.19929304 L12,8.19929302 L29,8.19929308 L37,8.19929308 L45,8.19929308 L45,9.09964651" id="Shape" stroke="#83D6E2" stroke-width="1.94000006" sketch:type="MSShapeGroup"></path>
                <g id="deckode-Logo-Copy" transform="translate(45.000000, 0.000000)" fill="#83D6E2" sketch:type="MSShapeGroup">
                    <g id="Group">
                        <path d="M4.00346021,12 C5.4819907,12.0000005 6.7106308,11.2682237 7.73702422,10.2537313 C7.90844554,10.0746269 13.1689287,5.01226264 12.8650519,4.97014925 C12.6722192,4.94642124 10.8858131,4.97014925 10.8858131,4.97014925 C10.8858131,4.97014925 7.28475683,8.54544321 6.74740484,9.08955224 C6.66524696,9.1643897 5.66172806,9.98507463 5.44290657,10.119403 C5.21238456,10.2537313 4.98771281,10.4776119 4.00346021,10.4776119 C2.51632358,10.4776119 1.52776789,9.40298498 1.52941176,8.32835821 C1.52776789,7.47761194 1.97711139,6.00253905 4.00346021,6 C5.25731601,5.99842015 6.29757785,6.98507463 6.29757785,6.98507463 L6.29757785,5.23880597 C6.29757785,5.23880597 5.25731891,4.47761194 4.00346021,4.47761194 C1.70750529,4.47761194 2.41485098e-16,6.04477612 0,8.32835821 C2.41485104e-16,10.6567164 1.97711139,11.9999993 4.00346021,12 Z" id="Oval-1"></path>
                        <path d="M6.83737024,8.37313433 L6.83737024,1.47761194 L8.36678201,0.0447761194 L8.36678201,6.89552239 L6.83737024,8.37313433 Z" id="Rectangle-1"></path>
                        <path d="M8.7266436,9.89552239 L9.80622837,8.82089552 L13,12 L10.8408304,12 L8.7266436,9.89552239 L8.7266436,9.89552239 Z" id="Rectangle-1-Copy-2"></path>
                    </g>
                </g>
            </g>
        </g>
    </g>
</svg>